# Rhino

mtllib cube.mtl
usemtl diffuse_0_0_0_255
v -10 -10 10
v -10 10 10
v 10 -10 10
v 10 10 10
v 10 -10 10
v 10 10 10
v 10 -10 -10
v 10 10 -10
v 10 -10 -10
v 10 10 -10
v -10 -10 -10
v -10 10 -10
v -10 -10 -10
v -10 10 -10
v -10 -10 10
v -10 10 10
v -10 -10 10
v 10 -10 10
v 10 -10 -10
v -10 -10 -10
v -10 10 10
v 10 10 10
v 10 10 -10
v -10 10 -10
vt 0 0
vt 0 0.66666620969772339
vt 0.25 0
vt 0.25 0.66666620969772339
vt 0.25 0
vt 0.25 0.66666620969772339
vt 0.5 0
vt 0.5 0.66666620969772339
vt 0.5 0
vt 0.5 0.66666620969772339
vt 0.75 0
vt 0.75 0.66666620969772339
vt 0.75 0
vt 0.75 0.66666620969772339
vt 1 0
vt 1 0.66666620969772339
vt 0 1
vt 0.25 1
vt 0.25 0.66666686534881592
vt 0 0.66666686534881592
vt 0.75 0.66666686534881592
vt 1 0.66666686534881592
vt 1 1
vt 0.75 1
vn 0 0 1
vn 0 0 1
vn 0 0 1
vn 0 0 1
vn 1 0 0
vn 1 0 0
vn 1 0 0
vn 1 0 0
vn 0 0 -1
vn 0 0 -1
vn 0 0 -1
vn 0 0 -1
vn -1 0 0
vn -1 0 0
vn -1 0 0
vn -1 0 0
vn 0 -1 0
vn 0 -1 0
vn 0 -1 0
vn 0 -1 0
vn 0 1 0
vn 0 1 0
vn 0 1 0
vn 0 1 0
f 1/1/1 3/3/3 4/4/4
f 5/5/5 7/7/7 8/8/8
f 9/9/9 11/11/11 12/12/12
f 13/13/13 15/15/15 16/16/16
f 18/18/18 17/17/17 20/20/20
f 20/20/20 19/19/19 18/18/18
f 22/22/22 24/24/24 21/21/21
f 24/24/24 22/22/22 23/23/23
f 1/1/1 4/4/4 2/2/2
f 5/5/5 8/8/8 6/6/6
f 9/9/9 12/12/12 10/10/10
f 13/13/13 16/16/16 14/14/14
usemtl diffuse_0_0_0_255
v -10 0 10
v 10 0 10
v 10 0 -10
v -10 0 -10
cstype bspline
deg 1
curv 0 80 25 26 27 28 25
parm u 0 0 20 40 60 80 80
end
